<svg width="16" height="16" viewBox="0 0 16 16" fill="none" xmlns="http://www.w3.org/2000/svg">
<path d="M8 0C3.58 0 0 3.58 0 8c0 3.54 2.29 6.53 5.47 7.59.4.07.55-.17.55-.38v-1.33C3.84 14.06 3.5 13 3.5 13c-.37-.94-.91-1.19-.91-1.19-.74-.5.06-.49.06-.49.82.06 1.25.84 1.25.84.73 1.25 1.92.89 2.39.68.07-.54.28-.9.51-1.1C4.9 10.68 2.98 9.9 2.98 6.99c0-1.22.44-2.22 1.17-3 .12-.3-.51-1.5.17-3.12 0 0 1-.32 3.3 1.2A11.04 11.04 0 0 1 8 3.01c1.23 0 2.47-.17 3.62-.5 2.3-1.53 3.3-1.2 3.3-1.2.68 1.62.29 2.82.15 3.12.73.78 1.17 1.78 1.17 3 0 2.92-1.92 3.69-3.76 3.87.3.24.57.73.57 1.48v2.19c0 .21.14.46.55.38A8.013 8.013 0 0 0 16 8c0-4.42-3.58-8-8-8z" fill="white"/>
</svg>
